<mxfile host="drawio-plugin" modified="2022-04-18T08:13:09.537Z" agent="5.0 (Macintosh; Intel Mac OS X 12_3_0) AppleWebKit/537.36 (KHTML, like Gecko) Chrome/89.0.4389.114 Safari/537.36" etag="Spm8lBlkvk9w7jYIBOAK" version="15.5.4" type="embed" pages="4"><diagram id="Apcybv1_2TdogQw9BSl8" name="Page-1"><mxGraphModel dx="733" dy="400" grid="1" gridSize="10" guides="1" tooltips="1" connect="1" arrows="1" fold="1" page="1" pageScale="1" pageWidth="827" pageHeight="1169" math="0" shadow="0"><root><mxCell id="0"/><mxCell id="1" parent="0"/><mxCell id="gTFI7yDS5s8AdS1q5MVR-1" value="&lt;a href=&quot;data:page/id,ywT4ct3H2L5pf33UiNoI&quot;&gt;Text Page Link 1&lt;/a&gt;" style="rounded=0;whiteSpace=wrap;html=1;" parent="1" vertex="1"><mxGeometry x="139" y="80" width="120" height="60" as="geometry"/></mxCell><UserObject label="&lt;span&gt;Shape Page Link 1&lt;/span&gt;" link="data:page/id,ywT4ct3H2L5pf33UiNoI" id="gTFI7yDS5s8AdS1q5MVR-2"><mxCell style="rounded=0;whiteSpace=wrap;html=1;" parent="1" vertex="1"><mxGeometry x="139" y="260" width="120" height="60" as="geometry"/></mxCell></UserObject><mxCell id="gTFI7yDS5s8AdS1q5MVR-3" value="&lt;a href=&quot;https://github.com/rlespinasse/drawio-exporter&quot;&gt;Text Link 1&lt;/a&gt;" style="rounded=0;whiteSpace=wrap;html=1;" parent="1" vertex="1"><mxGeometry x="380" y="80" width="120" height="60" as="geometry"/></mxCell><UserObject label="Shape Link 1" link="https://github.com/rlespinasse/drawio-exporter" id="gTFI7yDS5s8AdS1q5MVR-4"><mxCell style="rounded=0;whiteSpace=wrap;html=1;" parent="1" vertex="1"><mxGeometry x="380" y="260" width="120" height="60" as="geometry"/></mxCell></UserObject></root></mxGraphModel></diagram><diagram id="ywT4ct3H2L5pf33UiNoI" name="Page-2"><mxGraphModel dx="733" dy="400" grid="1" gridSize="10" guides="1" tooltips="1" connect="1" arrows="1" fold="1" page="1" pageScale="1" pageWidth="827" pageHeight="1169" math="0" shadow="0"><root><mxCell id="QeBkafk_o5Iim4rraq1M-0"/><mxCell id="QeBkafk_o5Iim4rraq1M-1" parent="QeBkafk_o5Iim4rraq1M-0"/><mxCell id="SRIjzhtWP4P2p3WCYQ-O-0" value="&lt;a href=&quot;data:page/id,Apcybv1_2TdogQw9BSl8&quot;&gt;Text Page Link 1&lt;/a&gt;" style="rounded=0;whiteSpace=wrap;html=1;" parent="QeBkafk_o5Iim4rraq1M-1" vertex="1"><mxGeometry x="160" y="80" width="120" height="60" as="geometry"/></mxCell><UserObject label="&lt;span&gt;Shape Page Link 1&lt;/span&gt;" link="data:page/id,Apcybv1_2TdogQw9BSl8" id="SRIjzhtWP4P2p3WCYQ-O-1"><mxCell style="rounded=0;whiteSpace=wrap;html=1;" parent="QeBkafk_o5Iim4rraq1M-1" vertex="1"><mxGeometry x="320" y="80" width="120" height="60" as="geometry"/></mxCell></UserObject><UserObject label="&lt;i&gt;Link&amp;nbsp;&lt;/i&gt;&lt;br&gt;&lt;b&gt;on&amp;nbsp;&lt;/b&gt;&lt;br&gt;&lt;u&gt;multiple&amp;nbsp;&lt;/u&gt;&lt;br&gt;&lt;strike&gt;Lines&lt;/strike&gt;" link="https://github.com/rlespinasse/drawio-exporter" id="SxT9qPL4ZwJQaMqGC58I-0"><mxCell style="rounded=0;whiteSpace=wrap;html=1;" parent="QeBkafk_o5Iim4rraq1M-1" vertex="1"><mxGeometry x="160" y="240" width="120" height="180" as="geometry"/></mxCell></UserObject></root></mxGraphModel></diagram><diagram id="CADikVZtOXnNAtnzr9LI" name="empty-link">&#xa;        &#xa;&#xa;        <mxGraphModel dx="1283" dy="626" grid="1" gridSize="10" guides="1" tooltips="1" connect="1" arrows="1" fold="1" page="1" pageScale="1" pageWidth="827" pageHeight="1169" math="0" shadow="0">&#xa;            &#xa;&#xa;            <root>&#xa;                &#xa;&#xa;                <mxCell id="1bOqVbvymWL8bxbQuwKf-0"/>&#xa;                &#xa;&#xa;                <mxCell id="1bOqVbvymWL8bxbQuwKf-1" parent="1bOqVbvymWL8bxbQuwKf-0"/>&#xa;                &#xa;&#xa;                <mxCell id="kKafoABkOOTirPasNVHp-0" value="&lt;a href=&quot;&quot;&gt;Empty Link&lt;/a&gt;" style="rounded=0;whiteSpace=wrap;html=1;" parent="1bOqVbvymWL8bxbQuwKf-1" vertex="1">&#xa;                    &#xa;&#xa;                    <mxGeometry x="70" y="60" width="120" height="60" as="geometry"/>&#xa;                    &#xa;&#xa;                </mxCell>&#xa;                &#xa;&#xa;            </root>&#xa;            &#xa;&#xa;        </mxGraphModel>&#xa;        &#xa;&#xa;    </diagram><diagram id="rDMYwXUe0tAF3LpdPAY4" name="empty-text">&#xa;        &#xa;&#xa;        <mxGraphModel dx="1283" dy="626" grid="1" gridSize="10" guides="1" tooltips="1" connect="1" arrows="1" fold="1" page="1" pageScale="1" pageWidth="827" pageHeight="1169" math="0" shadow="0">&#xa;            &#xa;&#xa;            <root>&#xa;                &#xa;&#xa;                <mxCell id="ftCtVIO6ZRvppXFgZSiD-0"/>&#xa;                &#xa;&#xa;                <mxCell id="ftCtVIO6ZRvppXFgZSiD-1" parent="ftCtVIO6ZRvppXFgZSiD-0"/>&#xa;                &#xa;&#xa;                <mxCell id="1gXsmca9gYJdXUQdxCGz-0" value="&lt;a href=&quot;https://github.com/rlespinasse/drawio-exporter&quot;&gt;&lt;/a&gt;" style="rounded=0;whiteSpace=wrap;html=1;" parent="ftCtVIO6ZRvppXFgZSiD-1" vertex="1">&#xa;                    &#xa;&#xa;                    <mxGeometry x="160" y="100" width="120" height="60" as="geometry"/>&#xa;                    &#xa;&#xa;                </mxCell>&#xa;                &#xa;&#xa;            </root>&#xa;            &#xa;&#xa;        </mxGraphModel>&#xa;        &#xa;&#xa;    </diagram></mxfile>